# xmcd CD database file
#
# Track frame offsets:
#	150
#	25757
#	47210
#
# Disc length: 939 seconds
#
# Revision: 0
# Processed by: cddbd v1.5.1PL2 Copyright (c) Steve Scherf et al.
# Submitted via: CDex 1.51
#
DISCID=1d03a903
DTITLE=RENTRER EN SOI - PROTOPLASM
DYEAR=2006
DGENRE=JPop
TTITLE0=PROTOPLASM
TTITLE1=太陽の届かない場所〜棺から絲　光を手にしもう一度還る深海〜
TTITLE2=月で涙
EXTD=YEAR: 2006
EXTT0=
EXTT1=
EXTT2=
PLAYORDER=
